<?xml version="1.0" standalone="no"?>
<!DOCTYPE svg PUBLIC "-//W3C//DTD SVG 20010904//EN"
 "http://www.w3.org/TR/2001/REC-SVG-20010904/DTD/svg10.dtd">
<svg version="1.0" xmlns="http://www.w3.org/2000/svg"
 width="528.000000pt" height="528.000000pt" viewBox="0 0 528.000000 528.000000"
 preserveAspectRatio="xMidYMid meet">
<metadata>
Created by potrace 1.11, written by Peter Selinger 2001-2013
</metadata>
<g transform="translate(0.000000,528.000000) scale(0.100000,-0.100000)"
fill="#000000" stroke="none">
<path d="M2235 5274 c-165 -36 -249 -66 -326 -118 -54 -36 -111 -105 -126
-151 -34 -108 38 -224 194 -312 35 -19 66 -39 69 -45 3 -5 9 -72 11 -149 l6
-139 -37 -15 c-63 -27 -160 -74 -191 -95 -81 -52 -86 -54 -119 -34 -17 9 -33
20 -36 23 -3 4 -18 15 -33 24 -57 37 -229 195 -223 206 14 22 21 156 12 222
-10 68 -62 135 -132 170 -54 27 -182 19 -269 -16 -84 -34 -165 -81 -236 -136
-280 -218 -328 -471 -108 -568 50 -22 115 -33 216 -35 65 -1 83 -11 113 -56 8
-12 20 -28 26 -34 40 -43 174 -277 174 -305 0 -7 -27 -58 -60 -114 -34 -56
-64 -108 -69 -116 -9 -17 -97 -48 -160 -57 -25 -3 -81 -6 -125 -7 -79 0 -80 0
-105 34 -47 63 -126 136 -170 159 -166 83 -338 -22 -416 -255 -47 -140 -44
-296 7 -398 70 -139 231 -180 410 -103 35 15 42 15 105 -5 151 -47 285 -133
297 -189 3 -14 8 -47 12 -75 3 -27 7 -59 9 -70 2 -11 6 -40 9 -66 4 -25 11
-60 16 -79 12 -41 1 -60 -75 -136 -50 -49 -273 -204 -295 -204 -5 0 -10 -4
-10 -9 0 -4 -17 -5 -37 -2 -45 8 -105 6 -164 -3 -192 -31 -273 -190 -197 -386
54 -137 192 -292 313 -350 171 -81 319 2 351 198 11 67 13 69 76 95 54 21 127
44 150 47 4 1 22 6 40 11 18 5 62 12 98 15 l65 6 37 -49 c20 -26 67 -79 103
-118 l67 -69 -6 -65 c-11 -107 -35 -192 -88 -311 -25 -58 -34 -67 -73 -83 -65
-27 -131 -81 -160 -132 -31 -53 -36 -135 -10 -188 80 -168 347 -288 533 -240
30 8 61 21 69 29 8 8 18 14 21 14 4 0 23 24 42 53 34 51 35 55 36 157 1 114 6
127 97 260 45 65 148 162 167 156 102 -32 167 -48 225 -57 39 -6 77 -13 85
-14 8 -2 18 -4 21 -4 3 -1 6 -7 6 -13 1 -7 4 -33 7 -58 4 -25 9 -83 11 -129
l5 -84 -43 -51 c-66 -78 -86 -110 -106 -169 -33 -95 -13 -183 56 -248 77 -73
159 -101 309 -105 254 -7 402 89 417 271 6 66 -39 163 -112 245 -40 45 -39 38
-17 170 9 52 19 109 22 125 10 59 13 62 77 75 34 7 104 26 154 42 l93 30 67
-43 c37 -24 116 -91 175 -149 89 -87 109 -112 113 -140 2 -19 7 -57 10 -85 28
-239 176 -354 371 -286 208 74 416 344 415 541 0 123 -73 208 -201 235 -41 9
-207 8 -221 -1 -29 -18 -155 161 -183 262 -5 16 6 34 47 77 58 62 99 111 137
166 14 20 31 42 38 49 6 7 12 18 12 23 0 5 5 15 11 22 5 7 18 26 29 43 l18 31
119 -2 c109 -3 143 -6 214 -21 16 -3 39 -23 60 -52 101 -141 216 -194 339
-154 163 52 284 315 246 536 -16 94 -78 178 -154 208 -58 23 -148 22 -225 -2
-72 -22 -74 -22 -118 20 -9 8 -27 24 -40 34 -13 10 -51 42 -84 71 -33 28 -72
62 -86 74 -24 20 -26 27 -21 74 13 127 4 339 -18 459 -6 28 -10 54 -10 59 0 4
22 35 50 68 52 62 128 125 219 180 48 29 56 31 85 21 269 -99 460 16 443 268
-14 201 -137 422 -284 509 -57 33 -147 42 -206 19 -81 -31 -156 -127 -202
-261 -22 -63 -30 -68 -135 -91 -14 -3 -32 -7 -40 -8 -37 -9 -150 -19 -203 -19
-54 0 -60 3 -85 34 -45 55 -174 183 -234 231 -31 26 -55 48 -52 50 2 2 6 31 9
63 10 114 52 291 76 321 5 6 28 16 51 23 24 7 74 29 111 49 210 109 252 288
105 442 -78 82 -158 126 -297 166 -81 23 -106 26 -190 21 -54 -2 -112 -12
-132 -20 -131 -57 -179 -189 -133 -361 9 -34 18 -70 21 -81 6 -29 -77 -151
-170 -247 -40 -43 -78 -78 -83 -78 -5 0 -27 5 -49 10 -22 5 -60 11 -85 15 -25
3 -58 8 -75 11 -16 3 -68 7 -115 9 -92 4 -78 -3 -159 90 -48 56 -117 195 -101
205 4 3 26 31 48 64 126 179 104 332 -58 404 -46 20 -73 25 -165 27 -60 2
-119 1 -130 -1z m241 -199 c34 -14 36 -17 31 -49 -6 -39 -45 -103 -99 -163
-21 -24 -39 -51 -39 -60 -4 -43 1 -72 19 -116 7 -16 12 -31 12 -34 0 -15 65
-130 99 -176 40 -55 113 -134 145 -157 12 -10 50 -15 114 -16 119 -3 183 -10
297 -34 28 -6 71 -13 97 -17 l46 -5 97 93 c112 108 199 220 245 312 41 83 41
90 13 165 -32 87 -39 169 -16 195 45 50 151 52 280 7 126 -44 227 -129 219
-183 -6 -46 -72 -89 -215 -141 -68 -25 -88 -37 -103 -62 -22 -38 -65 -159 -73
-205 -3 -19 -10 -50 -15 -69 -5 -19 -14 -78 -20 -130 -6 -52 -13 -104 -14
-115 -6 -40 17 -76 82 -127 92 -72 272 -254 272 -275 0 -16 66 -52 105 -58 75
-12 191 -5 330 19 61 11 194 48 220 61 33 17 43 35 74 140 23 81 64 149 98
164 63 29 182 -101 238 -259 21 -59 29 -167 14 -202 -10 -26 -23 -33 -69 -40
-30 -4 -115 14 -164 36 -59 26 -76 23 -160 -23 -129 -70 -262 -181 -333 -276
-12 -17 -31 -42 -42 -56 -11 -15 -21 -39 -22 -55 -1 -32 9 -102 16 -113 17
-28 25 -337 12 -473 -6 -74 1 -91 72 -153 19 -16 44 -39 55 -50 12 -11 59 -51
106 -89 47 -38 87 -72 90 -75 18 -21 119 -79 135 -77 23 3 71 21 99 37 30 17
128 22 147 7 67 -54 56 -230 -21 -352 -31 -49 -80 -80 -110 -71 -35 11 -71 47
-120 120 -52 77 -67 86 -158 99 -119 17 -168 20 -298 20 -108 -1 -146 -5 -163
-16 -11 -8 -45 -53 -75 -101 -71 -113 -133 -192 -229 -295 l-79 -83 5 -47 c3
-26 7 -54 10 -62 2 -8 7 -28 12 -45 16 -62 90 -186 153 -257 104 -118 108
-119 200 -102 107 20 221 6 234 -28 3 -7 4 -34 2 -58 -8 -83 -89 -210 -186
-291 -105 -87 -177 -103 -214 -46 -32 47 -43 93 -49 210 -4 66 -5 69 -60 132
-126 143 -283 273 -406 335 l-57 29 -112 -39 c-61 -21 -126 -42 -143 -45 -18
-3 -50 -9 -72 -15 -22 -5 -41 -9 -42 -10 -2 0 -13 0 -25 0 -39 -1 -68 -32 -83
-90 -14 -54 -52 -262 -60 -330 -3 -19 -7 -50 -9 -69 -6 -39 3 -54 67 -123 87
-93 104 -145 59 -186 -45 -42 -116 -60 -224 -57 -51 2 -100 5 -108 8 -42 12
-73 29 -95 52 -20 22 -22 31 -14 57 12 42 46 92 108 157 52 55 54 60 52 141
-4 165 -29 338 -57 392 -18 36 -42 47 -106 53 -29 3 -64 6 -78 9 -14 2 -47 7
-75 11 -27 4 -54 10 -60 13 -5 4 -16 7 -24 9 -7 1 -45 12 -83 24 l-70 23 -43
-23 c-41 -22 -66 -41 -140 -109 -45 -41 -105 -124 -175 -240 -60 -100 -62
-106 -55 -150 13 -82 10 -141 -8 -159 -53 -53 -254 6 -330 97 -48 57 -33 82
86 140 62 30 76 42 99 85 40 72 105 245 109 290 0 2 5 19 10 37 18 64 31 249
18 269 -4 7 -42 48 -86 93 -43 44 -92 99 -108 121 -17 22 -36 44 -42 48 -7 4
-13 14 -13 22 0 22 -46 47 -88 48 -41 1 -182 -12 -191 -18 -3 -1 -22 -6 -41
-9 -98 -15 -323 -102 -361 -139 -18 -18 -26 -36 -27 -64 -3 -80 -13 -127 -33
-154 -22 -32 -45 -32 -104 0 -78 41 -207 204 -222 279 -15 82 -3 107 60 122
36 8 136 6 183 -4 50 -10 311 155 435 275 111 107 144 174 125 249 -20 84 -39
200 -51 320 -4 49 -18 76 -59 118 -86 90 -198 158 -335 202 -128 41 -172 45
-214 20 -41 -24 -65 -31 -129 -37 -41 -4 -50 -2 -72 22 -15 16 -28 45 -32 72
-8 56 2 177 18 206 6 12 10 23 9 25 -1 1 7 22 18 45 23 47 56 87 86 103 47 25
123 -27 190 -131 51 -80 63 -84 245 -80 85 1 164 5 175 8 109 27 171 53 208
85 10 9 29 39 42 67 13 27 55 99 94 159 70 108 75 123 56 171 -16 40 -108 230
-114 235 -4 3 -22 31 -41 63 -19 31 -38 57 -42 57 -4 0 -8 6 -8 13 0 6 -31 46
-69 87 l-69 75 -104 2 c-125 1 -175 9 -205 29 -27 17 -28 32 -9 79 17 40 23
48 91 117 143 145 352 241 416 189 19 -15 22 -28 23 -87 0 -38 -4 -82 -8 -99
-17 -71 -15 -94 13 -132 31 -43 153 -164 191 -190 14 -9 31 -23 39 -31 25 -24
185 -129 211 -137 14 -5 32 -9 40 -8 21 0 70 24 70 35 0 4 5 8 11 8 6 0 29 13
52 29 54 37 165 91 245 121 91 33 96 43 96 209 -1 124 -8 234 -21 286 -3 11
-7 31 -10 45 -8 33 -18 42 -85 72 -72 33 -144 83 -158 108 -34 63 112 153 285
176 22 3 41 7 43 8 8 9 147 -6 178 -19z"/>
<path d="M2815 3751 c-128 -37 -221 -111 -271 -217 -25 -53 -28 -70 -28 -164
0 -92 3 -112 26 -161 35 -76 109 -152 183 -186 65 -30 64 -29 147 -41 64 -10
200 13 259 43 39 20 109 73 125 95 7 8 24 29 38 45 14 17 36 55 47 85 79 209
-44 435 -274 504 -62 19 -180 17 -252 -3z m222 -172 c120 -45 183 -176 135
-280 -26 -55 -47 -79 -98 -111 -71 -45 -152 -54 -239 -27 -104 33 -146 86
-153 193 -5 81 8 117 60 168 69 67 201 93 295 57z"/>
<path d="M1887 2951 c-72 -24 -101 -42 -154 -97 -59 -61 -86 -139 -80 -229 6
-89 10 -104 41 -153 158 -251 533 -248 662 5 26 51 29 68 29 148 0 78 -4 98
-27 145 -39 78 -73 113 -159 159 -75 41 -223 51 -312 22z m236 -179 c55 -25
86 -68 94 -130 10 -84 -35 -143 -135 -177 -48 -17 -92 -11 -160 21 -84 41
-122 129 -91 211 34 90 175 126 292 75z"/>
<path d="M3248 2655 c-2 -2 -28 -5 -58 -8 -65 -6 -190 -52 -258 -96 -164 -105
-234 -281 -182 -453 40 -130 116 -220 235 -274 45 -21 79 -28 149 -32 160 -8
285 38 395 147 95 94 132 172 136 291 4 121 -39 226 -130 316 -51 50 -73 64
-131 83 -59 19 -147 33 -156 26z m117 -198 c51 -25 83 -60 108 -117 26 -58 27
-151 2 -204 -25 -52 -92 -118 -147 -145 -56 -26 -76 -31 -153 -35 -219 -13
-349 228 -211 391 30 36 110 93 130 93 7 0 16 3 20 8 35 34 189 40 251 9z"/>
</g>
</svg>
