<svg width="32" height="33" viewBox="0 0 32 33" fill="none" xmlns="http://www.w3.org/2000/svg">
<path d="M16.5362 32.1995C15.5885 32.1995 14.4661 31.8753 14.1169 31.0023C13.8426 30.279 14.1668 29.4809 15.0647 28.608C15.0398 27.9595 15.0148 27.3359 14.8901 26.7872C14.0421 26.7124 13.4934 26.5627 12.7451 26.3133C12.0218 26.8371 11.6726 27.4357 11.2985 28.0592C11.2486 28.159 11.1738 28.2588 11.1239 28.3585C11.2736 29.0569 11.1988 29.6056 10.8995 30.0047C10.6251 30.3788 10.1512 30.6033 9.55261 30.6033C8.38036 30.6033 6.85893 29.7553 6.68434 28.6828C6.60951 28.2338 6.70928 27.4357 8.13094 26.887C8.62977 25.8893 8.87919 24.9914 8.87919 24.1185C8.4053 23.6945 7.9813 23.1956 7.58223 22.6719C6.50974 22.7217 5.73656 23.021 4.96337 23.3453C4.83866 25.0164 3.91582 25.2159 3.51676 25.2159C2.24474 25.2159 0.573656 23.3453 0.573656 21.9236C0.573656 21.4497 0.748247 21.0507 1.09743 20.7763C1.54638 20.4022 2.24474 20.2775 3.21746 20.4022L3.31723 20.3274C4.24006 19.7786 5.11302 19.2549 5.68667 18.4318C5.51208 17.7085 5.41232 16.9852 5.33749 16.2619C4.71395 15.5635 3.91582 15.2892 3.04287 15.0647C1.87062 15.6383 0.872954 15.4887 0.374123 14.7155C0.124708 14.3663 0 13.8675 0 13.3188C0 11.8223 0.848013 10.251 2.09509 10.251C2.76851 10.251 3.41699 10.6999 3.99065 11.6228C4.98831 11.6976 5.73656 11.5978 6.28527 11.3235C6.53469 10.8246 6.83398 10.3258 7.15822 9.85191C6.70928 8.80437 6.1855 8.00623 5.58691 7.33281C4.66407 7.3827 4.04053 7.28293 3.59158 7.00858C3.16758 6.75916 2.9431 6.3601 2.9431 5.91115C2.9431 4.41466 5.4622 2.49415 7.00857 2.49415C7.63211 2.49415 7.9813 2.76851 8.18083 3.01793C8.53001 3.46688 8.60483 4.16524 8.4053 5.11302C8.95402 5.73656 9.62744 6.28527 10.4256 6.7841C11.0491 6.3601 11.6228 6.03586 12.371 5.7615C12.3959 5.13796 12.3959 4.48948 12.2712 3.89088C11.0242 3.29229 10.4505 2.61886 10.6251 1.82073C10.8745 0.623539 12.8449 0 14.1668 0C15.1645 0 15.8379 0.324242 16.0873 0.897897C16.3617 1.52144 16.1122 2.26968 15.3391 3.16758C15.6134 3.99065 15.9626 4.38971 16.3617 4.81372C16.4115 4.8636 16.4614 4.91349 16.4864 4.96337C17.3344 4.93843 18.2073 5.06313 19.0553 5.26267C19.8285 4.53936 20.3523 3.91582 20.6516 3.26734C20.2775 2.34451 20.2525 1.59626 20.6017 1.04755C20.901 0.548717 21.4996 0.299302 22.2479 0.299302C23.7194 0.299302 25.5401 1.24708 25.7147 2.49415C25.8145 3.14263 25.4903 4.06547 23.4949 4.68901C23.1707 5.43726 23.0709 6.26033 22.9712 7.15823C23.6945 7.70694 24.3429 8.35542 24.9166 9.05379C25.6649 9.17849 26.5877 8.97896 27.5355 8.72954C28.0094 6.98363 28.8075 6.60951 29.4061 6.60951C30.8527 6.60951 32 8.77942 32 10.2011C32 10.675 31.8753 11.074 31.6259 11.3733C31.4263 11.6228 31.0522 11.9221 30.3788 11.9221C29.9797 11.9221 29.5308 11.8223 29.032 11.6228C27.9595 12.1964 27.4606 12.6703 26.9868 13.3437C27.2362 14.4661 27.286 15.7381 27.1364 16.9104C27.6352 17.3593 28.2089 17.8831 28.9571 18.4567C30.0546 17.9829 30.9525 18.1325 31.4263 18.8309C31.6508 19.1551 31.7755 19.6041 31.7755 20.1278C31.7755 21.5246 30.9275 23.046 29.7054 23.046C29.032 23.046 28.4084 22.597 27.8846 21.6991C27.1863 21.5495 26.3882 21.4497 25.59 21.5495C25.0912 22.4474 24.4677 23.2455 23.7444 23.9439C23.894 24.6422 24.343 25.2159 24.8168 25.7397C25.1411 25.6898 25.4404 25.6648 25.7147 25.6648C27.4606 25.6648 27.5853 26.8371 27.5853 27.1863C27.5853 28.583 25.8394 30.703 24.318 30.703C23.6945 30.703 22.6469 30.3539 22.597 28.1091C21.9236 27.3609 21.2751 26.6875 20.3523 26.1637C19.7537 26.4131 19.1052 26.5877 18.4318 26.7124C18.3071 27.3359 18.1824 28.0094 18.0826 28.6828C19.1052 29.6804 19.1302 30.4536 18.9306 30.9275C18.6812 31.8753 17.4591 32.1995 16.5362 32.1995ZM12.6703 25.191C12.7202 25.191 12.795 25.191 12.8449 25.2159C13.7677 25.5401 14.2915 25.6649 15.3391 25.7397C15.5635 25.7646 15.7381 25.8893 15.8129 26.1138C16.0873 26.9369 16.1122 27.8348 16.1372 28.7077V28.8075C16.1372 28.9571 16.0873 29.1068 15.9626 29.2315C15.2143 29.9049 15.0398 30.4037 15.1146 30.6033C15.2393 30.9026 15.8379 31.1271 16.5362 31.1271C17.3344 31.1271 17.933 30.8527 18.0327 30.5783C18.1325 30.304 17.8332 29.8301 17.2596 29.3063C17.1348 29.1816 17.06 29.007 17.085 28.8324L17.1099 28.6828C17.2346 27.8348 17.3843 26.9618 17.5588 26.1637C17.6087 25.9392 17.7833 25.7896 18.0078 25.7646C18.8309 25.6399 19.5791 25.4404 20.2775 25.1411C20.4271 25.0663 20.6017 25.0912 20.7264 25.166C21.9984 25.8145 22.8215 26.6875 23.6446 27.6103C23.7194 27.7101 23.7693 27.8348 23.7693 27.9595C23.7693 28.4832 23.8441 29.7054 24.4178 29.7054C24.7919 29.7054 25.3406 29.3562 25.8145 28.8324C26.2884 28.3087 26.6126 27.6602 26.6126 27.2362C26.6126 27.0865 26.6126 26.7623 25.8145 26.7623C25.5401 26.7623 25.2159 26.8122 24.8418 26.887C24.6672 26.9369 24.4677 26.862 24.3429 26.7373C23.6446 25.9891 22.8714 25.0912 22.7467 23.8691C22.7217 23.6945 22.7966 23.5448 22.9213 23.4201C23.7194 22.6719 24.3928 21.7989 24.9166 20.8511C24.9914 20.7015 25.1411 20.6017 25.3157 20.5768C26.438 20.4271 27.5355 20.5768 28.4832 20.7514C28.6329 20.7763 28.7576 20.8761 28.8324 21.0257C29.1816 21.6493 29.5557 22.0483 29.855 22.0483C30.3289 22.0483 30.8527 21.0507 30.8527 20.1777C30.8527 19.8784 30.8028 19.6539 30.6781 19.5043C30.6033 19.4045 30.5035 19.3048 30.2541 19.3048C30.0795 19.3048 29.7553 19.3546 29.2564 19.6041C29.0818 19.7038 28.8574 19.6789 28.7077 19.5542C27.7101 18.8309 27.0616 18.2572 26.3133 17.5588C26.1886 17.4341 26.1138 17.2595 26.1387 17.085C26.3133 15.9376 26.2634 14.5659 25.9891 13.4186C25.9642 13.2689 25.9891 13.1193 26.0639 12.9945C26.6875 12.0717 27.3359 11.3733 28.8574 10.6002C29.007 10.5253 29.1567 10.5253 29.3063 10.6002C29.88 10.8496 30.2541 10.8995 30.4536 10.8995C30.7529 10.8995 30.8277 10.7997 30.8776 10.7498C30.9525 10.65 31.0023 10.4755 31.0023 10.251C31.0023 9.12861 30.0546 7.70694 29.4809 7.70694C29.2315 7.70694 28.8574 8.13095 28.583 9.3032C28.5331 9.50273 28.3835 9.65238 28.2089 9.70226C27.2611 9.95167 26.3882 10.2011 25.5152 10.2011C25.191 10.2011 24.8917 10.1762 24.5924 10.1013C24.4677 10.0764 24.3679 10.0016 24.2931 9.9018C23.6945 9.12861 22.9961 8.43024 22.198 7.85659C22.0483 7.73188 21.9486 7.55729 21.9735 7.35776L21.9984 7.0834C22.1232 6.06079 22.2479 5.01325 22.7217 4.04053C22.7966 3.91583 22.9213 3.79112 23.046 3.76617C24.3679 3.39205 24.7919 2.9431 24.742 2.69369C24.6672 2.16992 23.3952 1.42167 22.3227 1.42167C22.0982 1.42167 21.7241 1.44661 21.5744 1.69603C21.4248 1.94544 21.4996 2.46921 21.7989 3.11769C21.8737 3.2424 21.8737 3.41699 21.7989 3.5417C21.4248 4.46454 20.7514 5.31255 19.629 6.31021C19.5043 6.43492 19.3048 6.4848 19.1302 6.43492C18.2073 6.1855 17.2845 6.0608 16.3367 6.11068C16.1621 6.11068 16.0125 6.03585 15.9127 5.93609C15.8129 5.83632 15.7381 5.73656 15.6384 5.63679C15.1645 5.13796 14.6407 4.53936 14.2915 3.26734C14.2416 3.09275 14.2915 2.89322 14.4162 2.76851C15.1395 1.99533 15.2393 1.54638 15.1894 1.42167C15.1395 1.3219 14.8402 1.14731 14.2416 1.14731C12.9945 1.14731 11.8223 1.74591 11.7475 2.12003C11.7225 2.26968 11.947 2.64381 13.0444 3.09275C13.1941 3.16758 13.3188 3.29229 13.3437 3.46688C13.5433 4.31489 13.5433 5.1629 13.5183 5.96103V6.23539C13.5183 6.45986 13.3687 6.65939 13.1442 6.73422C12.1964 7.03352 11.6228 7.40764 10.8246 7.93142C10.65 8.05612 10.4256 8.05612 10.251 7.95635C9.12861 7.30787 8.20577 6.53469 7.5074 5.68667C7.40764 5.56197 7.35776 5.38738 7.40764 5.21279C7.682 4.19018 7.48246 3.841 7.43258 3.76617C7.40764 3.74123 7.33281 3.64147 7.10834 3.64147C5.98597 3.64147 4.11536 5.23772 4.11536 5.98597C4.11536 6.03585 4.11536 6.08574 4.24006 6.16056C4.36477 6.23539 4.66407 6.33515 5.31255 6.33515C5.48714 6.33515 5.66173 6.33515 5.8862 6.31021C6.03585 6.31021 6.21045 6.3601 6.31021 6.45986C7.15822 7.30787 7.8067 8.35542 8.38036 9.75215C8.45518 9.92674 8.43024 10.1263 8.30554 10.2759C7.90647 10.7997 7.55729 11.3733 7.28293 11.9719C7.23305 12.0717 7.15822 12.1465 7.0834 12.1964C6.28527 12.6952 5.21278 12.8449 3.74123 12.6952C3.56664 12.6703 3.41699 12.5705 3.34217 12.4209C2.79345 11.4482 2.36945 11.3484 2.2198 11.3484C1.72097 11.3484 1.17225 12.3959 1.17225 13.3687C1.17225 13.6929 1.24708 13.9922 1.34684 14.1668C1.44661 14.3165 1.59626 14.3913 1.79579 14.3913C1.97038 14.3913 2.29462 14.3414 2.79345 14.067C2.91816 13.9922 3.04287 13.9922 3.16758 14.0172C4.28995 14.2915 5.43726 14.6656 6.33515 15.7631C6.40998 15.8379 6.43492 15.9626 6.45986 16.0624C6.50974 16.8605 6.63445 17.6586 6.83398 18.4567C6.85893 18.6064 6.85892 18.756 6.75916 18.8808C6.0608 20.0281 4.96337 20.6765 3.91582 21.3001L3.64147 21.4497C3.5417 21.5246 3.41699 21.5495 3.29228 21.5246C3.01793 21.4747 2.79345 21.4497 2.59392 21.4497C2.12003 21.4497 1.9205 21.5495 1.84567 21.6243C1.79579 21.6742 1.72097 21.749 1.72097 21.9486C1.72097 22.8465 2.96804 24.1684 3.61652 24.1684C3.99065 24.1684 4.01559 23.1956 4.01559 22.9961C4.01559 22.7966 4.1403 22.597 4.33983 22.4973L4.41465 22.4723C5.38738 22.0483 6.38504 21.6243 7.93141 21.5994C8.106 21.5994 8.28059 21.6742 8.38036 21.8239C8.82931 22.4474 9.3032 23.021 9.85191 23.47C9.95168 23.5698 10.0265 23.7194 10.0265 23.8691C10.0514 25.0912 9.75215 26.2634 9.05378 27.5853C8.97896 27.7101 8.87919 27.8098 8.75448 27.8348C8.15589 28.0343 7.78176 28.3087 7.8067 28.5331C7.88153 28.9571 8.82931 29.5557 9.6025 29.5557C9.7272 29.5557 9.97662 29.5308 10.0764 29.3811C10.2011 29.2315 10.2011 28.8823 10.0764 28.4334C10.0265 28.2837 10.0514 28.1341 10.1263 28.0094C10.226 27.8597 10.3009 27.7101 10.4006 27.5604C10.8246 26.8371 11.2985 25.9891 12.3959 25.2907C12.4708 25.2408 12.5705 25.191 12.6703 25.191Z" fill="#4F46E5"/>
<path d="M19.2549 21.8239C18.1325 21.8239 17.2097 21.2253 16.7857 20.2027C16.1871 18.781 16.8605 17.3843 18.4817 16.7108C18.9556 16.5113 19.4295 16.4115 19.8784 16.4115C20.9509 16.4115 21.774 16.9603 22.198 17.933C22.7966 19.3796 22.1231 20.901 20.5518 21.5744C20.1278 21.749 19.7038 21.8239 19.2549 21.8239ZM19.8784 17.484C19.5791 17.484 19.2299 17.5589 18.9057 17.7085C18.0826 18.0577 17.3593 18.8059 17.7833 19.8285C18.0327 20.4521 18.5814 20.8013 19.2798 20.8013C19.5791 20.8013 19.8535 20.7514 20.1528 20.6267C21.1504 20.2027 21.5994 19.2798 21.2253 18.3819C20.901 17.6337 20.3024 17.484 19.8784 17.484Z" fill="#4F46E5"/>
<path d="M12.1715 18.7311C11.9221 18.7311 11.6726 18.6812 11.4232 18.6064C10.7748 18.3819 10.2759 17.9579 10.0016 17.4092C9.75215 16.9104 9.72721 16.3616 9.92674 15.8129C10.226 14.9649 11.0491 14.4411 12.0717 14.4411C12.396 14.4411 12.7202 14.491 13.0195 14.5908C13.5682 14.7903 13.9922 15.1645 14.2416 15.6633C14.491 16.1871 14.516 16.7857 14.3165 17.3094C14.0421 18.1574 13.1193 18.7311 12.1715 18.7311ZM12.0717 15.5136C11.8472 15.5136 11.1489 15.5635 10.9244 16.1621C10.8246 16.4365 10.8496 16.6859 10.9493 16.9353C11.099 17.2346 11.3733 17.4591 11.7475 17.5838C11.8722 17.6337 11.9969 17.6586 12.1465 17.6586C12.6953 17.6586 13.1941 17.3094 13.3188 16.9602C13.4186 16.6859 13.3936 16.3866 13.2689 16.1372C13.1941 15.9626 13.0195 15.7381 12.6703 15.6134C12.4957 15.5635 12.2712 15.5136 12.0717 15.5136Z" fill="#4F46E5"/>
<path d="M17.7833 14.3913C16.3617 14.3913 15.2892 13.4684 15.1894 12.1465C15.0647 10.7249 16.0873 9.60249 17.6337 9.45284C19.1302 9.30319 20.3523 10.2759 20.5269 11.6477C20.6017 12.2463 20.4022 12.8449 20.0031 13.3437C19.5292 13.9174 18.8309 14.2915 18.0826 14.3663C17.9579 14.3913 17.8582 14.3913 17.7833 14.3913ZM17.8831 10.5253C17.8332 10.5253 17.7584 10.5253 17.7085 10.5253C16.9104 10.6002 16.1621 11.099 16.237 12.0717C16.3118 13.0195 17.1099 13.3437 17.7584 13.3437C17.8332 13.3437 17.8831 13.3437 17.9579 13.3437C18.4069 13.2938 18.8558 13.0694 19.1302 12.7202C19.3546 12.4458 19.4794 12.1216 19.4295 11.8223C19.3546 11.0491 18.7311 10.5253 17.8831 10.5253Z" fill="#4F46E5"/>
</svg>
